<mxfile host="app.diagrams.net" agent="Mozilla/5.0 (Windows NT 10.0; Win64; x64; rv:135.0) Gecko/20100101 Firefox/135.0" version="26.2.5">
  <diagram id="R2lEEEUBdFMjLlhIrx00" name="Page-1">
    <mxGraphModel dx="1044" dy="488" grid="1" gridSize="10" guides="1" tooltips="1" connect="1" arrows="1" fold="1" page="1" pageScale="1" pageWidth="850" pageHeight="1100" math="0" shadow="0" extFonts="Permanent Marker^https://fonts.googleapis.com/css?family=Permanent+Marker">
      <root>
        <mxCell id="0" />
        <mxCell id="1" parent="0" />
        <mxCell id="ptjuFkMW3F0WBF16uLgA-5" value="Giocatore" style="whiteSpace=wrap;html=1;align=center;" vertex="1" parent="1">
          <mxGeometry x="40" y="80" width="100" height="40" as="geometry" />
        </mxCell>
        <mxCell id="ptjuFkMW3F0WBF16uLgA-6" value="Personaggio" style="whiteSpace=wrap;html=1;align=center;" vertex="1" parent="1">
          <mxGeometry x="550" y="80" width="100" height="40" as="geometry" />
        </mxCell>
        <mxCell id="ptjuFkMW3F0WBF16uLgA-7" value="Livello" style="whiteSpace=wrap;html=1;align=center;" vertex="1" parent="1">
          <mxGeometry x="550" y="500" width="100" height="40" as="geometry" />
        </mxCell>
        <mxCell id="ptjuFkMW3F0WBF16uLgA-8" value="Mostro" style="whiteSpace=wrap;html=1;align=center;" vertex="1" parent="1">
          <mxGeometry x="40" y="280" width="100" height="40" as="geometry" />
        </mxCell>
        <mxCell id="ptjuFkMW3F0WBF16uLgA-11" value="Creazione" style="shape=rhombus;perimeter=rhombusPerimeter;whiteSpace=wrap;html=1;align=center;" vertex="1" parent="1">
          <mxGeometry x="290" y="70" width="120" height="60" as="geometry" />
        </mxCell>
        <mxCell id="ptjuFkMW3F0WBF16uLgA-12" value="Combattimento" style="shape=rhombus;perimeter=rhombusPerimeter;whiteSpace=wrap;html=1;align=center;" vertex="1" parent="1">
          <mxGeometry x="290" y="190" width="120" height="60" as="geometry" />
        </mxCell>
        <mxCell id="ptjuFkMW3F0WBF16uLgA-13" value="Rilascio" style="shape=rhombus;perimeter=rhombusPerimeter;whiteSpace=wrap;html=1;align=center;" vertex="1" parent="1">
          <mxGeometry x="30" y="410" width="120" height="60" as="geometry" />
        </mxCell>
        <mxCell id="ptjuFkMW3F0WBF16uLgA-14" value="CF" style="ellipse;whiteSpace=wrap;html=1;align=center;fontStyle=4;" vertex="1" parent="1">
          <mxGeometry x="30" y="10" width="40" height="40" as="geometry" />
        </mxCell>
        <mxCell id="ptjuFkMW3F0WBF16uLgA-15" value="" style="endArrow=none;html=1;rounded=0;entryX=0.5;entryY=0;entryDx=0;entryDy=0;exitX=0.5;exitY=1;exitDx=0;exitDy=0;" edge="1" parent="1" source="ptjuFkMW3F0WBF16uLgA-14" target="ptjuFkMW3F0WBF16uLgA-5">
          <mxGeometry relative="1" as="geometry">
            <mxPoint x="10" y="50" as="sourcePoint" />
            <mxPoint x="170" y="50" as="targetPoint" />
          </mxGeometry>
        </mxCell>
        <mxCell id="ptjuFkMW3F0WBF16uLgA-16" value="Nome" style="ellipse;whiteSpace=wrap;html=1;align=center;" vertex="1" parent="1">
          <mxGeometry x="100" y="10" width="40" height="40" as="geometry" />
        </mxCell>
        <mxCell id="ptjuFkMW3F0WBF16uLgA-17" value="Cognome" style="ellipse;whiteSpace=wrap;html=1;align=center;" vertex="1" parent="1">
          <mxGeometry x="160" y="10" width="60" height="40" as="geometry" />
        </mxCell>
        <mxCell id="ptjuFkMW3F0WBF16uLgA-18" value="" style="endArrow=none;html=1;rounded=0;entryX=0.75;entryY=0;entryDx=0;entryDy=0;" edge="1" parent="1" source="ptjuFkMW3F0WBF16uLgA-16" target="ptjuFkMW3F0WBF16uLgA-5">
          <mxGeometry relative="1" as="geometry">
            <mxPoint x="120" y="50" as="sourcePoint" />
            <mxPoint x="120" y="210" as="targetPoint" />
          </mxGeometry>
        </mxCell>
        <mxCell id="ptjuFkMW3F0WBF16uLgA-19" value="" style="endArrow=none;html=1;rounded=0;entryX=1;entryY=0;entryDx=0;entryDy=0;" edge="1" parent="1" source="ptjuFkMW3F0WBF16uLgA-17" target="ptjuFkMW3F0WBF16uLgA-5">
          <mxGeometry relative="1" as="geometry">
            <mxPoint x="190" y="50" as="sourcePoint" />
            <mxPoint x="190" y="210" as="targetPoint" />
          </mxGeometry>
        </mxCell>
        <mxCell id="ptjuFkMW3F0WBF16uLgA-20" value="" style="endArrow=none;html=1;rounded=0;" edge="1" parent="1" source="ptjuFkMW3F0WBF16uLgA-11" target="ptjuFkMW3F0WBF16uLgA-21">
          <mxGeometry relative="1" as="geometry">
            <mxPoint x="350" y="-90" as="sourcePoint" />
            <mxPoint x="360" y="50" as="targetPoint" />
          </mxGeometry>
        </mxCell>
        <mxCell id="ptjuFkMW3F0WBF16uLgA-21" value="Data" style="ellipse;whiteSpace=wrap;html=1;align=center;" vertex="1" parent="1">
          <mxGeometry x="310" y="10" width="50" height="40" as="geometry" />
        </mxCell>
        <mxCell id="ptjuFkMW3F0WBF16uLgA-22" value="" style="endArrow=none;html=1;rounded=0;entryX=1;entryY=1;entryDx=0;entryDy=0;" edge="1" parent="1" source="ptjuFkMW3F0WBF16uLgA-12" target="ptjuFkMW3F0WBF16uLgA-23">
          <mxGeometry relative="1" as="geometry">
            <mxPoint x="130" y="220" as="sourcePoint" />
            <mxPoint x="290" y="180" as="targetPoint" />
          </mxGeometry>
        </mxCell>
        <mxCell id="ptjuFkMW3F0WBF16uLgA-23" value="Difficoltà" style="ellipse;whiteSpace=wrap;html=1;align=center;" vertex="1" parent="1">
          <mxGeometry x="240" y="140" width="60" height="40" as="geometry" />
        </mxCell>
        <mxCell id="ptjuFkMW3F0WBF16uLgA-24" value="Abilità" style="ellipse;shape=doubleEllipse;margin=3;whiteSpace=wrap;html=1;align=center;" vertex="1" parent="1">
          <mxGeometry x="10" y="210" width="50" height="40" as="geometry" />
        </mxCell>
        <mxCell id="ptjuFkMW3F0WBF16uLgA-25" value="Completamento" style="shape=ext;margin=3;double=1;whiteSpace=wrap;html=1;align=center;" vertex="1" parent="1">
          <mxGeometry x="550" y="290" width="100" height="40" as="geometry" />
        </mxCell>
        <mxCell id="ptjuFkMW3F0WBF16uLgA-26" value="Tesoro" style="shape=ext;margin=3;double=1;whiteSpace=wrap;html=1;align=center;" vertex="1" parent="1">
          <mxGeometry x="40" y="580" width="100" height="40" as="geometry" />
        </mxCell>
        <mxCell id="ptjuFkMW3F0WBF16uLgA-28" value="" style="endArrow=none;html=1;rounded=0;entryX=0.5;entryY=1;entryDx=0;entryDy=0;exitX=0.25;exitY=0;exitDx=0;exitDy=0;" edge="1" parent="1" source="ptjuFkMW3F0WBF16uLgA-8" target="ptjuFkMW3F0WBF16uLgA-24">
          <mxGeometry relative="1" as="geometry">
            <mxPoint x="50" y="270" as="sourcePoint" />
            <mxPoint x="210" y="270" as="targetPoint" />
          </mxGeometry>
        </mxCell>
        <mxCell id="ptjuFkMW3F0WBF16uLgA-29" value="1" style="resizable=0;html=1;whiteSpace=wrap;align=left;verticalAlign=bottom;" connectable="0" vertex="1" parent="ptjuFkMW3F0WBF16uLgA-28">
          <mxGeometry x="-1" relative="1" as="geometry" />
        </mxCell>
        <mxCell id="ptjuFkMW3F0WBF16uLgA-30" value="N" style="resizable=0;html=1;whiteSpace=wrap;align=right;verticalAlign=bottom;" connectable="0" vertex="1" parent="ptjuFkMW3F0WBF16uLgA-28">
          <mxGeometry x="1" relative="1" as="geometry" />
        </mxCell>
        <mxCell id="ptjuFkMW3F0WBF16uLgA-31" value="ID" style="ellipse;whiteSpace=wrap;html=1;align=center;fontStyle=4;" vertex="1" parent="1">
          <mxGeometry x="80" y="210" width="40" height="40" as="geometry" />
        </mxCell>
        <mxCell id="ptjuFkMW3F0WBF16uLgA-32" value="ID" style="ellipse;whiteSpace=wrap;html=1;align=center;fontStyle=4;" vertex="1" parent="1">
          <mxGeometry x="550" y="20" width="100" height="40" as="geometry" />
        </mxCell>
        <mxCell id="ptjuFkMW3F0WBF16uLgA-33" value="" style="endArrow=none;html=1;rounded=0;entryX=0.5;entryY=0;entryDx=0;entryDy=0;exitX=0.5;exitY=1;exitDx=0;exitDy=0;" edge="1" parent="1" source="ptjuFkMW3F0WBF16uLgA-31" target="ptjuFkMW3F0WBF16uLgA-8">
          <mxGeometry relative="1" as="geometry">
            <mxPoint x="90" y="240" as="sourcePoint" />
            <mxPoint x="250" y="240" as="targetPoint" />
          </mxGeometry>
        </mxCell>
        <mxCell id="ptjuFkMW3F0WBF16uLgA-34" value="Nome" style="ellipse;whiteSpace=wrap;html=1;align=center;" vertex="1" parent="1">
          <mxGeometry x="140" y="210" width="40" height="40" as="geometry" />
        </mxCell>
        <mxCell id="ptjuFkMW3F0WBF16uLgA-36" value="" style="endArrow=none;html=1;rounded=0;entryX=0.856;entryY=-0.01;entryDx=0;entryDy=0;entryPerimeter=0;" edge="1" parent="1" target="ptjuFkMW3F0WBF16uLgA-8">
          <mxGeometry relative="1" as="geometry">
            <mxPoint x="160" y="250" as="sourcePoint" />
            <mxPoint x="320" y="250" as="targetPoint" />
          </mxGeometry>
        </mxCell>
        <mxCell id="ptjuFkMW3F0WBF16uLgA-37" value="" style="endArrow=none;html=1;rounded=0;entryX=0.5;entryY=0;entryDx=0;entryDy=0;" edge="1" parent="1" target="ptjuFkMW3F0WBF16uLgA-6">
          <mxGeometry relative="1" as="geometry">
            <mxPoint x="600" y="60" as="sourcePoint" />
            <mxPoint x="760" y="60" as="targetPoint" />
          </mxGeometry>
        </mxCell>
        <mxCell id="ptjuFkMW3F0WBF16uLgA-38" value="Nome" style="ellipse;whiteSpace=wrap;html=1;align=center;" vertex="1" parent="1">
          <mxGeometry x="680" y="20" width="50" height="40" as="geometry" />
        </mxCell>
        <mxCell id="ptjuFkMW3F0WBF16uLgA-39" value="Statistiche" style="ellipse;whiteSpace=wrap;html=1;align=center;" vertex="1" parent="1">
          <mxGeometry x="730" y="60" width="100" height="40" as="geometry" />
        </mxCell>
        <mxCell id="ptjuFkMW3F0WBF16uLgA-40" value="PuntiVita" style="ellipse;whiteSpace=wrap;html=1;align=center;" vertex="1" parent="1">
          <mxGeometry x="820" y="140" width="60" height="40" as="geometry" />
        </mxCell>
        <mxCell id="ptjuFkMW3F0WBF16uLgA-41" value="Difesa" style="ellipse;whiteSpace=wrap;html=1;align=center;" vertex="1" parent="1">
          <mxGeometry x="750" y="140" width="60" height="40" as="geometry" />
        </mxCell>
        <mxCell id="ptjuFkMW3F0WBF16uLgA-42" value="Attacco" style="ellipse;whiteSpace=wrap;html=1;align=center;" vertex="1" parent="1">
          <mxGeometry x="680" y="140" width="60" height="40" as="geometry" />
        </mxCell>
        <mxCell id="ptjuFkMW3F0WBF16uLgA-43" value="" style="endArrow=none;html=1;rounded=0;entryX=0;entryY=0.5;entryDx=0;entryDy=0;" edge="1" parent="1" target="ptjuFkMW3F0WBF16uLgA-39">
          <mxGeometry relative="1" as="geometry">
            <mxPoint x="650" y="100" as="sourcePoint" />
            <mxPoint x="810" y="100" as="targetPoint" />
          </mxGeometry>
        </mxCell>
        <mxCell id="ptjuFkMW3F0WBF16uLgA-44" value="" style="endArrow=none;html=1;rounded=0;exitX=1;exitY=0;exitDx=0;exitDy=0;entryX=0;entryY=1;entryDx=0;entryDy=0;" edge="1" parent="1" source="ptjuFkMW3F0WBF16uLgA-6" target="ptjuFkMW3F0WBF16uLgA-38">
          <mxGeometry relative="1" as="geometry">
            <mxPoint x="680" y="70" as="sourcePoint" />
            <mxPoint x="840" y="70" as="targetPoint" />
          </mxGeometry>
        </mxCell>
        <mxCell id="ptjuFkMW3F0WBF16uLgA-45" value="" style="endArrow=none;html=1;rounded=0;entryX=1;entryY=1;entryDx=0;entryDy=0;exitX=0.5;exitY=0;exitDx=0;exitDy=0;" edge="1" parent="1" source="ptjuFkMW3F0WBF16uLgA-40" target="ptjuFkMW3F0WBF16uLgA-39">
          <mxGeometry relative="1" as="geometry">
            <mxPoint x="680" y="110" as="sourcePoint" />
            <mxPoint x="840" y="110" as="targetPoint" />
            <Array as="points" />
          </mxGeometry>
        </mxCell>
        <mxCell id="ptjuFkMW3F0WBF16uLgA-46" value="" style="endArrow=none;html=1;rounded=0;entryX=0.5;entryY=1;entryDx=0;entryDy=0;exitX=0.5;exitY=0;exitDx=0;exitDy=0;" edge="1" parent="1" source="ptjuFkMW3F0WBF16uLgA-41" target="ptjuFkMW3F0WBF16uLgA-39">
          <mxGeometry relative="1" as="geometry">
            <mxPoint x="790" y="120" as="sourcePoint" />
            <mxPoint x="950" y="120" as="targetPoint" />
          </mxGeometry>
        </mxCell>
        <mxCell id="ptjuFkMW3F0WBF16uLgA-47" value="" style="endArrow=none;html=1;rounded=0;entryX=0.5;entryY=0;entryDx=0;entryDy=0;" edge="1" parent="1" target="ptjuFkMW3F0WBF16uLgA-42">
          <mxGeometry relative="1" as="geometry">
            <mxPoint x="760" y="100" as="sourcePoint" />
            <mxPoint x="920" y="100" as="targetPoint" />
            <Array as="points" />
          </mxGeometry>
        </mxCell>
        <mxCell id="ptjuFkMW3F0WBF16uLgA-50" value="" style="endArrow=none;html=1;rounded=0;dashed=1;dashPattern=1 2;exitX=1;exitY=0.5;exitDx=0;exitDy=0;" edge="1" parent="1" source="ptjuFkMW3F0WBF16uLgA-8" target="ptjuFkMW3F0WBF16uLgA-12">
          <mxGeometry relative="1" as="geometry">
            <mxPoint x="240" y="309.5" as="sourcePoint" />
            <mxPoint x="400" y="309.5" as="targetPoint" />
          </mxGeometry>
        </mxCell>
        <mxCell id="ptjuFkMW3F0WBF16uLgA-51" value="N" style="resizable=0;html=1;whiteSpace=wrap;align=right;verticalAlign=bottom;" connectable="0" vertex="1" parent="ptjuFkMW3F0WBF16uLgA-50">
          <mxGeometry x="1" relative="1" as="geometry" />
        </mxCell>
        <mxCell id="ptjuFkMW3F0WBF16uLgA-52" value="" style="endArrow=none;html=1;rounded=0;dashed=1;dashPattern=1 2;exitX=0;exitY=1;exitDx=0;exitDy=0;entryX=1;entryY=0;entryDx=0;entryDy=0;" edge="1" parent="1" source="ptjuFkMW3F0WBF16uLgA-6" target="ptjuFkMW3F0WBF16uLgA-12">
          <mxGeometry relative="1" as="geometry">
            <mxPoint x="480" y="200" as="sourcePoint" />
            <mxPoint x="640" y="200" as="targetPoint" />
          </mxGeometry>
        </mxCell>
        <mxCell id="ptjuFkMW3F0WBF16uLgA-53" value="N" style="resizable=0;html=1;whiteSpace=wrap;align=right;verticalAlign=bottom;" connectable="0" vertex="1" parent="ptjuFkMW3F0WBF16uLgA-52">
          <mxGeometry x="1" relative="1" as="geometry" />
        </mxCell>
        <mxCell id="ptjuFkMW3F0WBF16uLgA-54" value="" style="endArrow=none;html=1;rounded=0;dashed=1;dashPattern=1 2;entryX=1;entryY=0.5;entryDx=0;entryDy=0;" edge="1" parent="1" target="ptjuFkMW3F0WBF16uLgA-11">
          <mxGeometry relative="1" as="geometry">
            <mxPoint x="550" y="100" as="sourcePoint" />
            <mxPoint x="640" y="100" as="targetPoint" />
          </mxGeometry>
        </mxCell>
        <mxCell id="ptjuFkMW3F0WBF16uLgA-55" value="1" style="resizable=0;html=1;whiteSpace=wrap;align=right;verticalAlign=bottom;" connectable="0" vertex="1" parent="ptjuFkMW3F0WBF16uLgA-54">
          <mxGeometry x="1" relative="1" as="geometry" />
        </mxCell>
        <mxCell id="ptjuFkMW3F0WBF16uLgA-56" value="" style="endArrow=none;html=1;rounded=0;dashed=1;dashPattern=1 2;" edge="1" parent="1">
          <mxGeometry relative="1" as="geometry">
            <mxPoint x="140" y="100" as="sourcePoint" />
            <mxPoint x="290" y="100" as="targetPoint" />
          </mxGeometry>
        </mxCell>
        <mxCell id="ptjuFkMW3F0WBF16uLgA-57" value="N" style="resizable=0;html=1;whiteSpace=wrap;align=right;verticalAlign=bottom;" connectable="0" vertex="1" parent="ptjuFkMW3F0WBF16uLgA-56">
          <mxGeometry x="1" relative="1" as="geometry" />
        </mxCell>
        <mxCell id="ptjuFkMW3F0WBF16uLgA-58" value="" style="endArrow=none;html=1;rounded=0;entryX=0.5;entryY=1;entryDx=0;entryDy=0;" edge="1" parent="1" target="ptjuFkMW3F0WBF16uLgA-13">
          <mxGeometry relative="1" as="geometry">
            <mxPoint x="80" y="580" as="sourcePoint" />
            <mxPoint x="240" y="580" as="targetPoint" />
          </mxGeometry>
        </mxCell>
        <mxCell id="ptjuFkMW3F0WBF16uLgA-59" value="1" style="resizable=0;html=1;whiteSpace=wrap;align=right;verticalAlign=bottom;" connectable="0" vertex="1" parent="ptjuFkMW3F0WBF16uLgA-58">
          <mxGeometry x="1" relative="1" as="geometry" />
        </mxCell>
        <mxCell id="ptjuFkMW3F0WBF16uLgA-60" value="" style="endArrow=none;html=1;rounded=0;entryX=0.5;entryY=0;entryDx=0;entryDy=0;" edge="1" parent="1" target="ptjuFkMW3F0WBF16uLgA-13">
          <mxGeometry relative="1" as="geometry">
            <mxPoint x="90" y="320" as="sourcePoint" />
            <mxPoint x="250" y="320" as="targetPoint" />
          </mxGeometry>
        </mxCell>
        <mxCell id="ptjuFkMW3F0WBF16uLgA-61" value="N" style="resizable=0;html=1;whiteSpace=wrap;align=right;verticalAlign=bottom;" connectable="0" vertex="1" parent="ptjuFkMW3F0WBF16uLgA-60">
          <mxGeometry x="1" relative="1" as="geometry" />
        </mxCell>
        <mxCell id="ptjuFkMW3F0WBF16uLgA-63" value="ID" style="ellipse;whiteSpace=wrap;html=1;align=center;fontStyle=4;" vertex="1" parent="1">
          <mxGeometry x="130" y="520" width="40" height="40" as="geometry" />
        </mxCell>
        <mxCell id="ptjuFkMW3F0WBF16uLgA-66" value="" style="endArrow=none;html=1;rounded=0;entryX=0.75;entryY=0;entryDx=0;entryDy=0;" edge="1" parent="1" target="ptjuFkMW3F0WBF16uLgA-26">
          <mxGeometry relative="1" as="geometry">
            <mxPoint x="150" y="560" as="sourcePoint" />
            <mxPoint x="310" y="560" as="targetPoint" />
          </mxGeometry>
        </mxCell>
        <mxCell id="ptjuFkMW3F0WBF16uLgA-67" value="Valore" style="ellipse;whiteSpace=wrap;html=1;align=center;" vertex="1" parent="1">
          <mxGeometry x="170" y="620" width="60" height="40" as="geometry" />
        </mxCell>
        <mxCell id="ptjuFkMW3F0WBF16uLgA-68" value="Quantità" style="ellipse;whiteSpace=wrap;html=1;align=center;" vertex="1" parent="1">
          <mxGeometry x="170" y="560" width="60" height="40" as="geometry" />
        </mxCell>
        <mxCell id="ptjuFkMW3F0WBF16uLgA-69" value="" style="endArrow=none;html=1;rounded=0;exitX=1;exitY=0.75;exitDx=0;exitDy=0;entryX=0;entryY=0;entryDx=0;entryDy=0;" edge="1" parent="1" source="ptjuFkMW3F0WBF16uLgA-26" target="ptjuFkMW3F0WBF16uLgA-67">
          <mxGeometry relative="1" as="geometry">
            <mxPoint x="270" y="610" as="sourcePoint" />
            <mxPoint x="430" y="610" as="targetPoint" />
          </mxGeometry>
        </mxCell>
        <mxCell id="ptjuFkMW3F0WBF16uLgA-70" value="" style="endArrow=none;html=1;rounded=0;entryX=1;entryY=0.25;entryDx=0;entryDy=0;exitX=0;exitY=0.5;exitDx=0;exitDy=0;" edge="1" parent="1" source="ptjuFkMW3F0WBF16uLgA-68" target="ptjuFkMW3F0WBF16uLgA-26">
          <mxGeometry relative="1" as="geometry">
            <mxPoint x="310" y="590" as="sourcePoint" />
            <mxPoint x="470" y="590" as="targetPoint" />
          </mxGeometry>
        </mxCell>
        <mxCell id="ptjuFkMW3F0WBF16uLgA-71" value="Data" style="ellipse;whiteSpace=wrap;html=1;align=center;fontStyle=4;" vertex="1" parent="1">
          <mxGeometry x="680" y="290" width="60" height="40" as="geometry" />
        </mxCell>
        <mxCell id="ptjuFkMW3F0WBF16uLgA-72" value="" style="endArrow=none;html=1;rounded=0;exitX=1;exitY=0.5;exitDx=0;exitDy=0;entryX=0;entryY=0.5;entryDx=0;entryDy=0;" edge="1" parent="1" source="ptjuFkMW3F0WBF16uLgA-25" target="ptjuFkMW3F0WBF16uLgA-71">
          <mxGeometry relative="1" as="geometry">
            <mxPoint x="670" y="360" as="sourcePoint" />
            <mxPoint x="830" y="360" as="targetPoint" />
          </mxGeometry>
        </mxCell>
        <mxCell id="ptjuFkMW3F0WBF16uLgA-73" value="Highscore" style="ellipse;whiteSpace=wrap;html=1;align=center;dashed=1;" vertex="1" parent="1">
          <mxGeometry x="440" y="290" width="70" height="40" as="geometry" />
        </mxCell>
        <mxCell id="ptjuFkMW3F0WBF16uLgA-74" value="" style="endArrow=none;html=1;rounded=0;entryX=0;entryY=0.5;entryDx=0;entryDy=0;" edge="1" parent="1" target="ptjuFkMW3F0WBF16uLgA-25">
          <mxGeometry relative="1" as="geometry">
            <mxPoint x="510" y="310" as="sourcePoint" />
            <mxPoint x="670" y="310" as="targetPoint" />
          </mxGeometry>
        </mxCell>
        <mxCell id="ptjuFkMW3F0WBF16uLgA-75" value="C-L" style="shape=rhombus;perimeter=rhombusPerimeter;whiteSpace=wrap;html=1;align=center;" vertex="1" parent="1">
          <mxGeometry x="540" y="390" width="120" height="60" as="geometry" />
        </mxCell>
        <mxCell id="ptjuFkMW3F0WBF16uLgA-76" value="P-C" style="shape=rhombus;perimeter=rhombusPerimeter;whiteSpace=wrap;html=1;align=center;" vertex="1" parent="1">
          <mxGeometry x="540" y="180" width="120" height="60" as="geometry" />
        </mxCell>
        <mxCell id="ptjuFkMW3F0WBF16uLgA-77" value="" style="endArrow=none;html=1;rounded=0;entryX=0.5;entryY=0;entryDx=0;entryDy=0;" edge="1" parent="1" target="ptjuFkMW3F0WBF16uLgA-76">
          <mxGeometry relative="1" as="geometry">
            <mxPoint x="600" y="120" as="sourcePoint" />
            <mxPoint x="760" y="120" as="targetPoint" />
          </mxGeometry>
        </mxCell>
        <mxCell id="ptjuFkMW3F0WBF16uLgA-78" value="N" style="resizable=0;html=1;whiteSpace=wrap;align=right;verticalAlign=bottom;" connectable="0" vertex="1" parent="ptjuFkMW3F0WBF16uLgA-77">
          <mxGeometry x="1" relative="1" as="geometry" />
        </mxCell>
        <mxCell id="ptjuFkMW3F0WBF16uLgA-79" value="" style="endArrow=none;html=1;rounded=0;entryX=0.5;entryY=1;entryDx=0;entryDy=0;exitX=0.5;exitY=0;exitDx=0;exitDy=0;" edge="1" parent="1" source="ptjuFkMW3F0WBF16uLgA-7" target="ptjuFkMW3F0WBF16uLgA-75">
          <mxGeometry relative="1" as="geometry">
            <mxPoint x="590" y="500" as="sourcePoint" />
            <mxPoint x="750" y="500" as="targetPoint" />
          </mxGeometry>
        </mxCell>
        <mxCell id="ptjuFkMW3F0WBF16uLgA-80" value="N" style="resizable=0;html=1;whiteSpace=wrap;align=right;verticalAlign=bottom;" connectable="0" vertex="1" parent="ptjuFkMW3F0WBF16uLgA-79">
          <mxGeometry x="1" relative="1" as="geometry" />
        </mxCell>
        <mxCell id="ptjuFkMW3F0WBF16uLgA-81" value="" style="endArrow=none;html=1;rounded=0;exitX=0.5;exitY=0;exitDx=0;exitDy=0;entryX=0.5;entryY=1;entryDx=0;entryDy=0;" edge="1" parent="1" source="ptjuFkMW3F0WBF16uLgA-25" target="ptjuFkMW3F0WBF16uLgA-76">
          <mxGeometry relative="1" as="geometry">
            <mxPoint x="630" y="270" as="sourcePoint" />
            <mxPoint x="790" y="270" as="targetPoint" />
          </mxGeometry>
        </mxCell>
        <mxCell id="ptjuFkMW3F0WBF16uLgA-82" value="1" style="resizable=0;html=1;whiteSpace=wrap;align=right;verticalAlign=bottom;" connectable="0" vertex="1" parent="ptjuFkMW3F0WBF16uLgA-81">
          <mxGeometry x="1" relative="1" as="geometry" />
        </mxCell>
        <mxCell id="ptjuFkMW3F0WBF16uLgA-83" value="" style="endArrow=none;html=1;rounded=0;exitX=0.5;exitY=1;exitDx=0;exitDy=0;entryX=0.5;entryY=0;entryDx=0;entryDy=0;" edge="1" parent="1" source="ptjuFkMW3F0WBF16uLgA-25" target="ptjuFkMW3F0WBF16uLgA-75">
          <mxGeometry relative="1" as="geometry">
            <mxPoint x="610" y="340" as="sourcePoint" />
            <mxPoint x="770" y="340" as="targetPoint" />
          </mxGeometry>
        </mxCell>
        <mxCell id="ptjuFkMW3F0WBF16uLgA-84" value="1" style="resizable=0;html=1;whiteSpace=wrap;align=right;verticalAlign=bottom;" connectable="0" vertex="1" parent="ptjuFkMW3F0WBF16uLgA-83">
          <mxGeometry x="1" relative="1" as="geometry" />
        </mxCell>
        <mxCell id="ptjuFkMW3F0WBF16uLgA-85" value="ID" style="ellipse;whiteSpace=wrap;html=1;align=center;fontStyle=4;" vertex="1" parent="1">
          <mxGeometry x="670" y="500" width="100" height="40" as="geometry" />
        </mxCell>
        <mxCell id="ptjuFkMW3F0WBF16uLgA-86" value="Descrizione" style="ellipse;whiteSpace=wrap;html=1;align=center;" vertex="1" parent="1">
          <mxGeometry x="550" y="560" width="100" height="40" as="geometry" />
        </mxCell>
        <mxCell id="ptjuFkMW3F0WBF16uLgA-87" value="Nome" style="ellipse;whiteSpace=wrap;html=1;align=center;" vertex="1" parent="1">
          <mxGeometry x="670" y="560" width="100" height="40" as="geometry" />
        </mxCell>
        <mxCell id="ptjuFkMW3F0WBF16uLgA-88" value="" style="endArrow=none;html=1;rounded=0;exitX=0.5;exitY=0;exitDx=0;exitDy=0;entryX=0.5;entryY=1;entryDx=0;entryDy=0;" edge="1" parent="1" source="ptjuFkMW3F0WBF16uLgA-86" target="ptjuFkMW3F0WBF16uLgA-7">
          <mxGeometry relative="1" as="geometry">
            <mxPoint x="690" y="470" as="sourcePoint" />
            <mxPoint x="850" y="470" as="targetPoint" />
          </mxGeometry>
        </mxCell>
        <mxCell id="ptjuFkMW3F0WBF16uLgA-89" value="" style="endArrow=none;html=1;rounded=0;exitX=0;exitY=0.5;exitDx=0;exitDy=0;entryX=1;entryY=0.5;entryDx=0;entryDy=0;" edge="1" parent="1" source="ptjuFkMW3F0WBF16uLgA-85" target="ptjuFkMW3F0WBF16uLgA-7">
          <mxGeometry relative="1" as="geometry">
            <mxPoint x="690" y="470" as="sourcePoint" />
            <mxPoint x="850" y="470" as="targetPoint" />
          </mxGeometry>
        </mxCell>
        <mxCell id="ptjuFkMW3F0WBF16uLgA-90" value="" style="endArrow=none;html=1;rounded=0;exitX=0.5;exitY=0;exitDx=0;exitDy=0;entryX=1;entryY=1;entryDx=0;entryDy=0;" edge="1" parent="1" source="ptjuFkMW3F0WBF16uLgA-87" target="ptjuFkMW3F0WBF16uLgA-7">
          <mxGeometry relative="1" as="geometry">
            <mxPoint x="760" y="550" as="sourcePoint" />
            <mxPoint x="920" y="550" as="targetPoint" />
          </mxGeometry>
        </mxCell>
        <mxCell id="ptjuFkMW3F0WBF16uLgA-91" value="Boss" style="whiteSpace=wrap;html=1;align=center;" vertex="1" parent="1">
          <mxGeometry x="300" y="350" width="60" height="40" as="geometry" />
        </mxCell>
        <mxCell id="ptjuFkMW3F0WBF16uLgA-92" value="Miniboss" style="whiteSpace=wrap;html=1;align=center;" vertex="1" parent="1">
          <mxGeometry x="230" y="350" width="60" height="40" as="geometry" />
        </mxCell>
        <mxCell id="ptjuFkMW3F0WBF16uLgA-94" style="edgeStyle=orthogonalEdgeStyle;rounded=0;orthogonalLoop=1;jettySize=auto;html=1;exitX=0.5;exitY=0;exitDx=0;exitDy=0;entryX=1;entryY=1;entryDx=0;entryDy=0;" edge="1" parent="1" source="ptjuFkMW3F0WBF16uLgA-93" target="ptjuFkMW3F0WBF16uLgA-8">
          <mxGeometry relative="1" as="geometry" />
        </mxCell>
        <mxCell id="ptjuFkMW3F0WBF16uLgA-93" value="Scagnozzo" style="whiteSpace=wrap;html=1;align=center;" vertex="1" parent="1">
          <mxGeometry x="150" y="350" width="70" height="40" as="geometry" />
        </mxCell>
        <mxCell id="ptjuFkMW3F0WBF16uLgA-97" value="" style="endArrow=none;html=1;rounded=0;" edge="1" parent="1">
          <mxGeometry relative="1" as="geometry">
            <mxPoint x="250" y="350" as="sourcePoint" />
            <mxPoint x="180" y="330" as="targetPoint" />
            <Array as="points">
              <mxPoint x="250" y="330" />
            </Array>
          </mxGeometry>
        </mxCell>
        <mxCell id="ptjuFkMW3F0WBF16uLgA-98" value="" style="endArrow=none;html=1;rounded=0;entryX=0.5;entryY=0;entryDx=0;entryDy=0;" edge="1" parent="1" target="ptjuFkMW3F0WBF16uLgA-91">
          <mxGeometry relative="1" as="geometry">
            <mxPoint x="250" y="330" as="sourcePoint" />
            <mxPoint x="330" y="290" as="targetPoint" />
            <Array as="points">
              <mxPoint x="330" y="330" />
            </Array>
          </mxGeometry>
        </mxCell>
        <mxCell id="ptjuFkMW3F0WBF16uLgA-99" value="Immunità" style="ellipse;shape=doubleEllipse;margin=3;whiteSpace=wrap;html=1;align=center;" vertex="1" parent="1">
          <mxGeometry x="297.5" y="410" width="65" height="40" as="geometry" />
        </mxCell>
        <mxCell id="ptjuFkMW3F0WBF16uLgA-100" value="" style="endArrow=none;html=1;rounded=0;entryX=0.5;entryY=0;entryDx=0;entryDy=0;exitX=0.5;exitY=1;exitDx=0;exitDy=0;" edge="1" parent="1" source="ptjuFkMW3F0WBF16uLgA-91" target="ptjuFkMW3F0WBF16uLgA-99">
          <mxGeometry relative="1" as="geometry">
            <mxPoint x="75" y="290" as="sourcePoint" />
            <mxPoint x="45" y="260" as="targetPoint" />
          </mxGeometry>
        </mxCell>
        <mxCell id="ptjuFkMW3F0WBF16uLgA-101" value="1" style="resizable=0;html=1;whiteSpace=wrap;align=left;verticalAlign=bottom;" connectable="0" vertex="1" parent="ptjuFkMW3F0WBF16uLgA-100">
          <mxGeometry x="-1" relative="1" as="geometry" />
        </mxCell>
        <mxCell id="ptjuFkMW3F0WBF16uLgA-102" value="N" style="resizable=0;html=1;whiteSpace=wrap;align=right;verticalAlign=bottom;" connectable="0" vertex="1" parent="ptjuFkMW3F0WBF16uLgA-100">
          <mxGeometry x="1" relative="1" as="geometry" />
        </mxCell>
      </root>
    </mxGraphModel>
  </diagram>
</mxfile>
